# xmcd CD database file
#
# Track frame offsets:
#	150
#	24312
#	45367
#	72097
#	92135
#	114420
#	129320
#	148587
#	168550
#	194135
#
# Disc length: 2859 seconds
#
# Revision: 0
# Processed by: cddbd v1.5.1PL0 Copyright (c) Steve Scherf et al.
# Submitted via: CDex 1.51
#
DISCID=860b290a
DTITLE=杏子 - Dear Me
DYEAR=1995
DGENRE=JPop
TTITLE0=星のかけらを探しに行こう
TTITLE1=恋愛大未遂
TTITLE2=グラビアの果実
TTITLE3=走ってゆけ
TTITLE4=あなたに還りたい
TTITLE5=地団駄
TTITLE6=HATAMEIWAKU
TTITLE7=BOY
TTITLE8=人魚姫〜forget-me-not〜
TTITLE9=Dear Me
EXTD=YEAR: 1995
EXTT0=
EXTT1=
EXTT2=
EXTT3=
EXTT4=
EXTT5=
EXTT6=
EXTT7=
EXTT8=
EXTT9=
PLAYORDER=
